<?xml version="1.0" standalone="no"?>
<!DOCTYPE svg PUBLIC "-//W3C//DTD SVG 20010904//EN"
 "http://www.w3.org/TR/2001/REC-SVG-20010904/DTD/svg10.dtd">
<svg version="1.0" xmlns="http://www.w3.org/2000/svg"
 width="180.000000pt" height="180.000000pt" viewBox="0 0 180.000000 180.000000"
 preserveAspectRatio="xMidYMid meet">

<g transform="translate(0.000000,180.000000) scale(0.100000,-0.100000)"
fill="#000000" stroke="none">
<path d="M414 1623 c0 -34 3 -58 4 -53 6 16 22 12 22 -5 0 -8 5 -15 10 -15 13
0 13 7 -2 33 -7 12 -18 40 -24 62 l-11 40 1 -62z"/>
<path d="M317 1611 c-3 -12 -1 -19 3 -16 5 3 11 -1 13 -7 4 -9 6 -8 6 2 0 8
-3 21 -8 28 -6 10 -10 9 -14 -7z"/>
<path d="M344 1566 c-7 -19 23 -69 36 -61 6 3 7 -1 4 -10 -4 -9 -13 -14 -20
-11 -8 3 -14 2 -14 -3 0 -13 31 -36 48 -36 8 0 17 -7 19 -15 4 -13 3 -13 -6 0
-12 18 -17 13 -26 -22 -5 -21 -3 -29 9 -34 9 -3 16 -12 16 -19 0 -6 9 -20 21
-31 12 -10 35 -37 53 -59 l31 -39 -32 24 c-18 13 -33 27 -33 32 0 4 -5 8 -12
8 -7 0 -38 25 -69 56 -58 57 -93 68 -82 25 6 -24 50 -67 60 -58 3 4 1 7 -5 7
-7 0 -12 5 -12 12 0 6 -10 22 -22 35 -36 38 -13 26 31 -17 42 -41 54 -67 25
-56 -9 3 -12 2 -9 -5 4 -6 13 -8 20 -5 8 3 19 -3 27 -11 11 -15 11 -16 -5 -10
-11 4 -16 3 -12 -4 4 -6 13 -8 20 -5 7 2 25 -9 40 -24 16 -16 32 -27 37 -24 4
3 4 -6 -1 -19 -6 -14 -6 -29 0 -38 11 -18 12 -42 0 -35 -5 3 -11 -5 -13 -19
-3 -14 0 -25 6 -26 6 0 1 -4 -11 -9 -51 -21 -25 -59 160 -240 31 -30 57 -58
57 -61 0 -15 290 -289 305 -289 4 0 50 -40 103 -88 54 -48 108 -93 122 -100
33 -16 57 -31 101 -64 20 -16 42 -28 47 -28 6 0 15 -6 19 -13 13 -20 97 -57
130 -57 35 0 63 27 63 61 0 27 -33 98 -53 114 -7 6 -21 26 -30 45 -19 38 -39
72 -47 80 -3 3 -14 23 -25 45 -10 22 -32 56 -47 76 -15 20 -28 40 -28 44 0 4
-8 19 -19 33 -10 15 -22 42 -26 60 -3 17 -10 32 -15 32 -4 0 -11 8 -14 18 -12
31 -34 65 -50 74 -9 5 -16 14 -16 20 0 9 -56 87 -71 98 -4 3 -11 18 -14 33 -4
15 -11 27 -17 27 -5 0 -14 13 -19 29 -6 16 -17 32 -25 35 -8 3 -14 10 -14 16
0 6 -13 23 -30 37 -16 13 -30 29 -30 35 0 10 -20 35 -98 122 -31 35 -37 38
-55 26 -15 -9 -22 -10 -25 -1 -2 6 -8 8 -14 5 -6 -4 -5 2 1 15 10 18 8 21 -14
27 -43 11 -95 -4 -95 -27 0 -11 -6 -21 -12 -23 -7 -2 -28 -8 -47 -14 -19 -7
-37 -9 -40 -6 -3 2 5 7 17 11 27 7 29 23 2 23 -11 0 -20 7 -20 15 0 8 -4 15
-9 15 -5 0 -12 12 -16 27 -5 21 -8 24 -15 13 -7 -11 -13 -7 -25 20 -14 30 -15
31 -10 8 9 -44 -11 -33 -36 20 -12 26 -35 62 -51 80 -15 18 -28 39 -28 46 0 7
-9 21 -20 31 -18 16 -20 16 -26 1z m106 -218 c0 -15 -21 -8 -27 10 -3 9 -13
26 -22 37 -9 11 -1 7 17 -9 17 -17 32 -33 32 -38z m4 46 c3 -8 2 -12 -4 -9 -6
3 -10 10 -10 16 0 14 7 11 14 -7z m51 -112 c-6 -7 -35 18 -35 31 0 5 9 2 20
-8 11 -10 18 -20 15 -23z m211 -42 c8 0 14 -7 14 -15 0 -21 39 -19 48 3 5 11
9 -2 12 -36 l5 -54 25 22 25 22 3 -52 c3 -51 4 -52 23 -34 18 16 19 16 19 -2
1 -23 20 -48 40 -52 8 -2 18 -9 22 -15 6 -9 11 -8 18 3 8 12 10 9 10 -12 0
-18 5 -28 15 -28 8 0 15 -8 15 -19 0 -25 26 -47 33 -29 3 7 6 3 6 -9 1 -13 6
-23 11 -23 6 0 10 -12 10 -26 0 -17 6 -28 20 -31 11 -3 20 -12 20 -19 0 -8 7
-14 15 -14 10 0 15 -10 15 -30 0 -35 17 -40 23 -7 2 12 5 1 6 -25 0 -27 6 -48
11 -48 6 0 10 -9 10 -21 0 -27 20 -14 21 14 0 12 6 -1 13 -28 15 -61 23 -75
42 -75 8 0 14 -9 14 -20 0 -11 6 -20 13 -20 16 0 51 -36 53 -53 0 -7 2 -20 2
-29 1 -10 7 -18 12 -18 6 0 10 8 11 18 0 14 2 14 8 -3 6 -14 4 -22 -6 -25 -13
-5 -13 -8 1 -19 9 -7 16 -20 16 -27 0 -8 7 -14 15 -14 8 0 15 -8 15 -18 0 -10
4 -22 9 -27 9 -10 14 -48 12 -94 -1 -24 -1 -24 -16 -5 -13 17 -14 17 -15 2 0
-16 -2 -16 -20 2 -11 11 -20 27 -20 35 0 8 -4 15 -10 15 -5 0 -10 -5 -10 -11
0 -7 -11 0 -25 15 -13 14 -29 26 -35 26 -6 0 -26 11 -44 25 -18 14 -38 25 -44
25 -7 0 -12 9 -12 21 0 14 -5 19 -14 16 -20 -8 -44 22 -49 63 -3 31 -5 32 -12
12 -6 -17 -15 -22 -41 -22 -32 0 -34 2 -34 35 0 28 -4 35 -19 35 -25 0 -37 18
-22 33 16 16 13 27 -8 27 -23 0 -38 17 -43 50 -4 24 -5 24 -14 5 -6 -13 -19
-20 -36 -20 -24 -1 -28 3 -27 25 1 17 3 19 6 8 2 -10 11 -18 19 -18 17 0 19
16 3 26 -8 4 -8 9 0 17 14 14 14 47 1 47 -5 0 -10 -4 -10 -9 0 -5 -9 -7 -20
-4 -11 3 -20 9 -20 14 0 5 -7 9 -15 9 -11 0 -14 -7 -9 -25 4 -15 2 -25 -4 -25
-7 0 -11 25 -11 61 1 41 -4 67 -14 76 -10 10 -17 12 -21 4 -4 -6 -2 -11 4 -11
7 0 6 -5 -2 -14 -20 -22 -31 -7 -24 35 7 45 4 47 -26 17 l-23 -23 -3 23 c-4
24 -22 31 -22 8 0 -8 -5 -18 -12 -22 -8 -5 -9 6 -5 40 4 30 3 45 -3 41 -6 -3
-10 5 -10 19 0 14 -4 26 -10 26 -5 0 -10 -4 -10 -10 0 -14 -27 -12 -33 3 -4 9
-8 8 -16 -3 -12 -17 -15 2 -11 83 2 59 -16 62 -25 5 -7 -38 -9 -40 -16 -20 -5
12 -13 22 -18 22 -23 0 42 121 77 143 6 4 12 15 12 23 0 12 8 14 35 10 22 -4
35 -2 35 5 0 6 7 8 16 5 9 -3 22 -6 30 -6z m734 -1035 c0 -8 -4 -15 -10 -15
-5 0 -7 7 -4 15 4 8 8 15 10 15 2 0 4 -7 4 -15z"/>
<path d="M1040 560 c0 -5 5 -10 11 -10 5 0 7 5 4 10 -3 6 -8 10 -11 10 -2 0
-4 -4 -4 -10z"/>
<path d="M1050 511 c0 -6 5 -13 10 -16 6 -3 10 1 10 9 0 9 -4 16 -10 16 -5 0
-10 -4 -10 -9z"/>
<path d="M1390 345 c0 -8 5 -15 10 -15 6 0 10 7 10 15 0 8 -4 15 -10 15 -5 0
-10 -7 -10 -15z"/>
<path d="M1380 280 c0 -5 5 -10 11 -10 5 0 7 5 4 10 -3 6 -8 10 -11 10 -2 0
-4 -4 -4 -10z"/>
<path d="M290 1557 c0 -8 9 -22 20 -32 11 -10 20 -13 20 -7 0 7 -9 21 -20 32
-14 14 -20 16 -20 7z"/>
<path d="M226 1435 c23 -21 44 -25 44 -9 0 3 -3 3 -7 1 -10 -6 -34 19 -26 27
4 3 -4 6 -16 6 -22 0 -21 -1 5 -25z"/>
<path d="M471 1455 c1 -19 18 -51 18 -35 0 8 -4 22 -9 30 -5 8 -9 11 -9 5z"/>
<path d="M510 1436 c0 -8 4 -17 9 -20 5 -4 7 3 4 14 -6 23 -13 26 -13 6z"/>
</g>
</svg>
